<svg width="4021" height="2052" xmlns="http://www.w3.org/2000/svg" xmlns:xlink="http://www.w3.org/1999/xlink" xml:space="preserve" overflow="hidden"><g transform="translate(-194 -373)"><rect x="2204.5" y="1482.5" width="488" height="393" stroke="#0E5640" stroke-width="6.875" stroke-miterlimit="8" fill="none"/><path d="M3185.5 634.5 3185.5 2057.44" stroke="#9A9A9A" stroke-width="3.4375" stroke-linecap="round" stroke-miterlimit="8" stroke-dasharray="0 6.875" fill="none" fill-rule="evenodd"/><path d="M3191.5 512.5 3683.93 512.5 3700.5 581.5 3683.93 650.5 3191.5 650.5 3208.07 581.5Z" stroke="#FFFFFF" stroke-width="3.09357" stroke-miterlimit="8" fill="#0E5640" fill-rule="evenodd"/><text fill="#FFFFFF" font-family="Arial,Arial_MSFontService,sans-serif" font-weight="400" font-size="55" transform="matrix(1 0 0 1 3376.97 593)">​</text><text fill="#FFFFFF" font-family="Basis Grotesque Arabic Pro,Basis Grotesque Arabic Pro_MSFontService,sans-serif" font-weight="400" font-size="55" direction="rtl" writing-mode="rl-tb" transform="matrix(1 0 0 1 3376.95 593)" x="170.156">التسليم</text><rect x="3213.5" y="671.5" width="488" height="528" stroke="#BFBFBF" stroke-width="6.875" stroke-miterlimit="8" fill="#F2F2F2"/><rect x="3213.5" y="1212.5" width="488" height="528" stroke="#BFBFBF" stroke-width="6.875" stroke-miterlimit="8" fill="#F2F2F2"/><rect x="3213.5" y="1753.5" width="488" height="528" stroke="#BFBFBF" stroke-width="6.875" stroke-miterlimit="8" fill="#F2F2F2"/><path d="M1696.5 512.5 2181.93 512.5 2198.5 581.5 2181.93 650.5 1696.5 650.5 1713.07 581.5Z" stroke="#FFFFFF" stroke-width="3.09357" stroke-miterlimit="8" fill="#0E5640" fill-rule="evenodd"/><text fill="#FFFFFF" font-family="Arial,Arial_MSFontService,sans-serif" font-weight="400" font-size="55" transform="matrix(1 0 0 1 1779.3 593)">​</text><text fill="#FFFFFF" font-family="Basis Grotesque Arabic Pro,Basis Grotesque Arabic Pro_MSFontService,sans-serif" font-weight="400" font-size="55" direction="rtl" writing-mode="rl-tb" transform="matrix(1 0 0 1 1779.28 593)" x="368.385">المخطط الرئيسي</text><path d="M2191.5 512.5 2675.94 512.5 2692.5 581.5 2675.94 650.5 2191.5 650.5 2208.07 581.5Z" stroke="#FFFFFF" stroke-width="3.09357" stroke-miterlimit="8" fill="#0E5640" fill-rule="evenodd"/><text fill="#FFFFFF" font-family="Arial,Arial_MSFontService,sans-serif" font-weight="400" font-size="55" transform="matrix(1 0 0 1 2252.03 593)">​</text><text fill="#FFFFFF" font-family="Basis Grotesque Arabic Pro,Basis Grotesque Arabic Pro_MSFontService,sans-serif" font-weight="400" font-size="55" direction="rtl" writing-mode="rl-tb" transform="matrix(1 0 0 1 2252.01 593)" x="411.927">التصميم المعماري</text><path d="M196.5 374.5 1172.65 374.5 1188.5 440.5 1172.65 506.5 196.5 506.5Z" stroke="#FFFFFF" stroke-width="3.09357" stroke-linejoin="round" stroke-miterlimit="10" fill="#0E5640" fill-rule="evenodd"/><text fill="#FFFFFF" font-family="Arial,Arial_MSFontService,sans-serif" font-weight="400" font-size="55" transform="matrix(1 0 0 1 589.115 452)">​</text><text fill="#FFFFFF" font-family="Basis Grotesque Arabic Pro,Basis Grotesque Arabic Pro_MSFontService,sans-serif" font-weight="400" font-size="55" direction="rtl" writing-mode="rl-tb" transform="matrix(1 0 0 1 589.093 452)" x="296.771">اقتراح التطوير</text><path d="M196.5 512.5 682.935 512.5 699.5 581.5 682.935 650.5 196.5 650.5Z" stroke="#FFFFFF" stroke-width="3.09357" stroke-linejoin="round" stroke-miterlimit="10" fill="#0E5640" fill-rule="evenodd"/><text fill="#FFFFFF" font-family="Arial,Arial_MSFontService,sans-serif" font-weight="400" font-size="55" transform="matrix(1 0 0 1 387.571 593)">​</text><text fill="#FFFFFF" font-family="Basis Grotesque Arabic Pro,Basis Grotesque Arabic Pro_MSFontService,sans-serif" font-weight="400" font-size="55" direction="rtl" writing-mode="rl-tb" transform="matrix(1 0 0 1 387.548 593)" x="143.802">تحضير</text><rect x="199.5" y="671.5" width="488" height="528" stroke="#0E5640" stroke-width="6.875" stroke-miterlimit="8" fill="none"/><rect x="199.5" y="1212.5" width="488" height="528" stroke="#0E5640" stroke-width="6.875" stroke-miterlimit="8" fill="none"/><rect x="199.5" y="1753.5" width="488" height="528" stroke="#0E5640" stroke-width="6.875" stroke-miterlimit="8" fill="none"/><path d="M691.5 512.5 1179.93 512.5 1196.5 581.5 1179.93 650.5 691.5 650.5 708.066 581.5Z" stroke="#FFFFFF" stroke-width="3.09357" stroke-miterlimit="8" fill="#0E5640" fill-rule="evenodd"/><text fill="#FFFFFF" font-family="Arial,Arial_MSFontService,sans-serif" font-weight="400" font-size="55" transform="matrix(1 0 0 1 801.819 593)">​</text><text fill="#FFFFFF" font-family="Basis Grotesque Arabic Pro,Basis Grotesque Arabic Pro_MSFontService,sans-serif" font-weight="400" font-size="55" direction="rtl" writing-mode="rl-tb" transform="matrix(1 0 0 1 801.796 593)" x="316.25">خيارات التطوير</text><rect x="700.5" y="671.5" width="488" height="396" stroke="#0E5640" stroke-width="6.875" stroke-miterlimit="8" fill="none"/><rect x="700.5" y="1076.5" width="488" height="396" stroke="#0E5640" stroke-width="6.875" stroke-miterlimit="8" fill="none"/><rect x="700.5" y="1885.5" width="488" height="396" stroke="#0E5640" stroke-width="6.875" stroke-miterlimit="8" fill="none"/><rect x="700.5" y="1480.5" width="488" height="396" stroke="#BFBFBF" stroke-width="6.875" stroke-miterlimit="8" fill="#F2F2F2"/><path d="M1202.5 512.5 1686.93 512.5 1703.5 581.5 1686.93 650.5 1202.5 650.5 1219.07 581.5Z" stroke="#FFFFFF" stroke-width="3.09357" stroke-miterlimit="8" fill="#0E5640" fill-rule="evenodd"/><text fill="#FFFFFF" font-family="Arial,Arial_MSFontService,sans-serif" font-weight="400" font-size="55" transform="matrix(1 0 0 1 1274.77 593)">​</text><text fill="#FFFFFF" font-family="Basis Grotesque Arabic Pro,Basis Grotesque Arabic Pro_MSFontService,sans-serif" font-weight="400" font-size="55" direction="rtl" writing-mode="rl-tb" transform="matrix(1 0 0 1 1274.75 593)" x="388.438">تخطيط استراتيجي</text><rect x="1205.5" y="671.5" width="488" height="396" stroke="#BFBFBF" stroke-width="6.875" stroke-miterlimit="8" fill="#F2F2F2"/><rect x="1205.5" y="1076.5" width="488" height="396" stroke="#BFBFBF" stroke-width="6.875" stroke-miterlimit="8" fill="#F2F2F2"/><rect x="1205.5" y="1480.5" width="488" height="396" stroke="#BFBFBF" stroke-width="6.875" stroke-miterlimit="8" fill="#F2F2F2"/><rect x="1205.5" y="1885.5" width="488" height="396" stroke="#0E5640" stroke-width="6.875" stroke-miterlimit="8" fill="none"/><rect x="1704.5" y="671.5" width="488" height="258" stroke="#0E5640" stroke-width="6.875" stroke-miterlimit="8" fill="none"/><rect x="1704.5" y="942.5" width="488" height="257" stroke="#0E5640" stroke-width="6.875" stroke-miterlimit="8" fill="none"/><rect x="1704.5" y="1212.5" width="488" height="257" stroke="#0E5640" stroke-width="6.875" stroke-miterlimit="8" fill="none"/><rect x="1704.5" y="1482.5" width="488" height="258" stroke="#BFBFBF" stroke-width="6.875" stroke-miterlimit="8" fill="#F2F2F2"/><rect x="1704.5" y="1753.5" width="488" height="257" stroke="#BFBFBF" stroke-width="6.875" stroke-miterlimit="8" fill="#F2F2F2"/><rect x="1704.5" y="2023.5" width="488" height="258" stroke="#BFBFBF" stroke-width="6.875" stroke-miterlimit="8" fill="#F2F2F2"/><rect x="2707.5" y="671.5" width="488" height="393" stroke="#BFBFBF" stroke-width="6.875" stroke-miterlimit="8" fill="#F2F2F2"/><rect x="2707.5" y="1077.5" width="488" height="392" stroke="#BFBFBF" stroke-width="6.875" stroke-miterlimit="8" fill="#F2F2F2"/><rect x="2707.5" y="1482.5" width="488" height="393" stroke="#BFBFBF" stroke-width="6.875" stroke-miterlimit="8" fill="#F2F2F2"/><rect x="2707.5" y="1888.5" width="488" height="393" stroke="#BFBFBF" stroke-width="6.875" stroke-miterlimit="8" fill="#F2F2F2"/><path d="M3707.5 512.5 4195.93 512.5 4212.5 581.5 4195.93 650.5 3707.5 650.5 3724.07 581.5Z" stroke="#FFFFFF" stroke-width="3.09357" stroke-miterlimit="8" fill="#0E5640" fill-rule="evenodd"/><text fill="#FFFFFF" font-family="Arial,Arial_MSFontService,sans-serif" font-weight="400" font-size="55" transform="matrix(1 0 0 1 3837.64 593)">​</text><text fill="#FFFFFF" font-family="Basis Grotesque Arabic Pro,Basis Grotesque Arabic Pro_MSFontService,sans-serif" font-weight="400" font-size="55" direction="rtl" writing-mode="rl-tb" transform="matrix(1 0 0 1 3837.62 593)" x="276.719">إدارة الأصول</text><rect x="3716.5" y="671.5" width="488" height="528" stroke="#BFBFBF" stroke-width="6.875" stroke-miterlimit="8" fill="#F2F2F2"/><rect x="3716.5" y="1212.5" width="488" height="528" stroke="#BFBFBF" stroke-width="6.875" stroke-miterlimit="8" fill="#F2F2F2"/><rect x="3716.5" y="1753.5" width="488" height="528" stroke="#BFBFBF" stroke-width="6.875" stroke-miterlimit="8" fill="#F2F2F2"/><path d="M2694.5 512.5 3185.93 512.5 3202.5 581.5 3185.93 650.5 2694.5 650.5 2711.07 581.5Z" stroke="#FFFFFF" stroke-width="3.09357" stroke-miterlimit="8" fill="#0E5640" fill-rule="evenodd"/><text fill="#FFFFFF" font-family="Arial,Arial_MSFontService,sans-serif" font-weight="400" font-size="55" transform="matrix(1 0 0 1 2892.86 593)">​</text><text fill="#FFFFFF" font-family="Basis Grotesque Arabic Pro,Basis Grotesque Arabic Pro_MSFontService,sans-serif" font-weight="400" font-size="55" direction="rtl" writing-mode="rl-tb" transform="matrix(1 0 0 1 2892.84 593)" x="143.802">التنفيذ</text><path d="M1204.5 374.5 2667.66 374.5 2683.5 440.501 2667.66 506.5 1204.5 506.5 1220.34 440.501Z" stroke="#FFFFFF" stroke-width="3.09357" stroke-miterlimit="8" fill="#0E5640" fill-rule="evenodd"/><text fill="#FFFFFF" font-family="Arial,Arial_MSFontService,sans-serif" font-weight="400" font-size="55" transform="matrix(1 0 0 1 1747.11 452)">​</text><text fill="#FFFFFF" font-family="Basis Grotesque Arabic Pro,Basis Grotesque Arabic Pro_MSFontService,sans-serif" font-weight="400" font-size="55" direction="rtl" writing-mode="rl-tb" transform="matrix(1 0 0 1 1747.08 452)" x="426.25">التخطيط والتصميم</text><path d="M2689.5 374.5 3684.66 374.5 3700.5 440.5 3684.66 506.5 2689.5 506.5 2705.34 440.5Z" stroke="#FFFFFF" stroke-width="3.09357" stroke-miterlimit="8" fill="#0E5640" fill-rule="evenodd"/><text fill="#FFFFFF" font-family="Arial,Arial_MSFontService,sans-serif" font-weight="400" font-size="55" transform="matrix(1 0 0 1 3158.16 452)">​</text><text fill="#FFFFFF" font-family="Basis Grotesque Arabic Pro,Basis Grotesque Arabic Pro_MSFontService,sans-serif" font-weight="400" font-size="55" direction="rtl" writing-mode="rl-tb" transform="matrix(1 0 0 1 3158.14 452)" x="105.417">البناء</text><path d="M3707.5 374.5 4196.65 374.5 4212.5 440.5 4196.65 506.5 3707.5 506.5 3723.34 440.5Z" stroke="#FFFFFF" stroke-width="3.09357" stroke-miterlimit="8" fill="#0E5640" fill-rule="evenodd"/><text fill="#FFFFFF" font-family="Arial,Arial_MSFontService,sans-serif" font-weight="400" font-size="55" transform="matrix(1 0 0 1 3885.04 452)">​</text><text fill="#FFFFFF" font-family="Basis Grotesque Arabic Pro,Basis Grotesque Arabic Pro_MSFontService,sans-serif" font-weight="400" font-size="55" direction="rtl" writing-mode="rl-tb" transform="matrix(1 0 0 1 3885.02 452)" x="181.615">التشغيل</text><path d="M1706.5 636.5 1706.5 2059.44" stroke="#9A9A9A" stroke-width="3.4375" stroke-linecap="round" stroke-miterlimit="8" stroke-dasharray="0 6.875" fill="none" fill-rule="evenodd"/><path d="M3696.5 640.5 3696.5 2063.44" stroke="#9A9A9A" stroke-width="3.4375" stroke-linecap="round" stroke-miterlimit="8" stroke-dasharray="0 6.875" fill="none" fill-rule="evenodd"/><path d="M4200.5 630.5 4200.5 2053.44" stroke="#9A9A9A" stroke-width="3.4375" stroke-linecap="round" stroke-miterlimit="8" stroke-dasharray="0 6.875" fill="none" fill-rule="evenodd"/><rect x="2204.5" y="671.5" width="488" height="393" stroke="#0E5640" stroke-width="6.875" stroke-miterlimit="8" fill="none"/><rect x="2204.5" y="1077.5" width="488" height="392" stroke="#0E5640" stroke-width="6.875" stroke-miterlimit="8" fill="none"/><rect x="2204.5" y="1888.5" width="488" height="393" stroke="#BFBFBF" stroke-width="6.875" stroke-miterlimit="8" fill="#F2F2F2"/><text fill="#767171" font-family="Basis Grotesque Arabic Pro,Basis Grotesque Arabic Pro_MSFontService,sans-serif" font-weight="700" font-size="32" direction="rtl" writing-mode="rl-tb" transform="matrix(1 0 0 1 2247.61 2091)" x="418.802">استراتيجية تنفيذ المباني العامة</text><rect x="201" y="674" width="482" height="84.9999" fill="#D9D9D9"/><text fill="#0B4332" font-family="Basis Grotesque Arabic Pro,Basis Grotesque Arabic Pro_MSFontService,sans-serif" font-weight="700" font-size="32" direction="rtl" writing-mode="rl-tb" transform="matrix(1 0 0 1 213.775 723)" x="457.188">دراسة السوق وتعيين الاستشاريين</text><text fill="#0B4332" font-family="Basis Grotesque Arabic Pro,Basis Grotesque Arabic Pro_MSFontService,sans-serif" font-weight="700" font-size="32" transform="matrix(1 0 0 1 670.986 723)"> </text><rect x="201" y="1755" width="482" height="86.0002" fill="#D9D9D9"/><text fill="#0B4332" font-family="Basis Grotesque Arabic Pro,Basis Grotesque Arabic Pro_MSFontService,sans-serif" font-weight="700" font-size="32" direction="rtl" writing-mode="rl-tb" transform="matrix(1 0 0 1 331.51 1805)" x="221.719">ملخص المشروع</text><text fill="#0B4332" font-family="Basis Grotesque Arabic Pro,Basis Grotesque Arabic Pro_MSFontService,sans-serif" font-weight="700" font-size="32" transform="matrix(1 0 0 1 553.251 1805)"> </text><rect x="703" y="1078" width="482" height="85.9999" fill="#D9D9D9"/><text fill="#0B4332" font-family="Basis Grotesque Arabic Pro,Basis Grotesque Arabic Pro_MSFontService,sans-serif" font-weight="700" font-size="32" direction="rtl" writing-mode="rl-tb" transform="matrix(1 0 0 1 755.76 1128)" x="375.833">دراسة جدوى خيارات التطوير</text><text fill="#0B4332" font-family="Basis Grotesque Arabic Pro,Basis Grotesque Arabic Pro_MSFontService,sans-serif" font-weight="700" font-size="32" transform="matrix(1 0 0 1 1131.62 1128)"> </text><rect x="703" y="1890" width="482" height="84.9999" fill="#D9D9D9"/><text fill="#0B4332" font-family="Basis Grotesque Arabic Pro,Basis Grotesque Arabic Pro_MSFontService,sans-serif" font-weight="700" font-size="32" direction="rtl" writing-mode="rl-tb" transform="matrix(1 0 0 1 954.562 1920)" x="202.813">لجنة الاستثمار </text><text fill="#0B4332" font-family="Basis Grotesque Arabic Pro,Basis Grotesque Arabic Pro_MSFontService,sans-serif" font-weight="700" font-size="32" direction="rtl" writing-mode="rl-tb" transform="matrix(1 0 0 1 928.78 1920)" x="25.7812">/ </text><text fill="#0B4332" font-family="Basis Grotesque Arabic Pro,Basis Grotesque Arabic Pro_MSFontService,sans-serif" font-weight="700" font-size="32" direction="rtl" writing-mode="rl-tb" transform="matrix(1 0 0 1 721.385 1920)" x="207.396">موافقة مجلس </text><text fill="#0B4332" font-family="Basis Grotesque Arabic Pro,Basis Grotesque Arabic Pro_MSFontService,sans-serif" font-weight="700" font-size="32" direction="rtl" writing-mode="rl-tb" transform="matrix(1 0 0 1 902.701 1959)" x="81.9271">الإدارة</text><text fill="#0B4332" font-family="Basis Grotesque Arabic Pro,Basis Grotesque Arabic Pro_MSFontService,sans-serif" font-weight="700" font-size="32" transform="matrix(1 0 0 1 984.651 1959)"> </text><rect x="1208" y="1890" width="481" height="84.9999" fill="#D9D9D9"/><text fill="#0B4332" font-family="Basis Grotesque Arabic Pro,Basis Grotesque Arabic Pro_MSFontService,sans-serif" font-weight="700" font-size="32" direction="rtl" writing-mode="rl-tb" transform="matrix(1 0 0 1 1270.23 1940)" x="356.354">مشاركة المطورين الفرعيين</text><text fill="#0B4332" font-family="Basis Grotesque Arabic Pro,Basis Grotesque Arabic Pro_MSFontService,sans-serif" font-weight="700" font-size="32" transform="matrix(1 0 0 1 1626.61 1940)"> </text><rect x="2207" y="674" width="482" height="84.9999" fill="#D9D9D9"/><text fill="#0B4332" font-family="Basis Grotesque Arabic Pro,Basis Grotesque Arabic Pro_MSFontService,sans-serif" font-weight="700" font-size="32" direction="rtl" writing-mode="rl-tb" transform="matrix(1 0 0 1 2412.53 723)" x="225.729">تعميد المطورين </text><text fill="#0B4332" font-family="Basis Grotesque Arabic Pro,Basis Grotesque Arabic Pro_MSFontService,sans-serif" font-weight="700" font-size="32" direction="rtl" writing-mode="rl-tb" transform="matrix(1 0 0 1 2386.75 723)" x="25.7812">/ </text><text fill="#0B4332" font-family="Basis Grotesque Arabic Pro,Basis Grotesque Arabic Pro_MSFontService,sans-serif" font-weight="700" font-size="32" direction="rtl" writing-mode="rl-tb" transform="matrix(1 0 0 1 2257.27 723)" x="129.479">المقاولين</text><text fill="#0B4332" font-family="Basis Grotesque Arabic Pro,Basis Grotesque Arabic Pro_MSFontService,sans-serif" font-weight="700" font-size="32" transform="matrix(1 0 0 1 2638.28 723)"> </text><rect x="3719" y="1216" width="482" height="85.0002" fill="#D9D9D9"/><text fill="#767171" font-family="Basis Grotesque Arabic Pro,Basis Grotesque Arabic Pro_MSFontService,sans-serif" font-weight="700" font-size="32" direction="rtl" writing-mode="rl-tb" transform="matrix(1 0 0 1 3798.74 1265)" x="321.979">عمليات الأصول التجارية</text><rect x="3215" y="1755" width="482" height="86.0002" fill="#D9D9D9"/><text fill="#767171" font-family="Basis Grotesque Arabic Pro,Basis Grotesque Arabic Pro_MSFontService,sans-serif" font-weight="700" font-size="32" direction="rtl" writing-mode="rl-tb" transform="matrix(1 0 0 1 3362.41 1805)" x="187.917">الإغلاق المالي</text><rect x="1708" y="2026" width="482" height="84.9999" fill="#D9D9D9"/><text fill="#767171" font-family="Basis Grotesque Arabic Pro,Basis Grotesque Arabic Pro_MSFontService,sans-serif" font-weight="700" font-size="32" direction="rtl" writing-mode="rl-tb" transform="matrix(1 0 0 1 1975.27 2056)" x="201.667">خطة العمليات </text><text fill="#767171" font-family="Basis Grotesque Arabic Pro,Basis Grotesque Arabic Pro_MSFontService,sans-serif" font-weight="700" font-size="32" direction="rtl" writing-mode="rl-tb" transform="matrix(1 0 0 1 1963.81 2056)" x="11.4583">(</text><text fill="#767171" font-family="Basis Grotesque Arabic Pro,Basis Grotesque Arabic Pro_MSFontService,sans-serif" font-weight="700" font-size="32" direction="rtl" writing-mode="rl-tb" transform="matrix(1 0 0 1 1711.73 2056)" x="252.083">المرافق والخدمات </text><text fill="#767171" font-family="Basis Grotesque Arabic Pro,Basis Grotesque Arabic Pro_MSFontService,sans-serif" font-weight="700" font-size="32" direction="rtl" writing-mode="rl-tb" transform="matrix(1 0 0 1 1909.38 2095)" x="89.9479">وغيرها</text><text fill="#767171" font-family="Basis Grotesque Arabic Pro,Basis Grotesque Arabic Pro_MSFontService,sans-serif" font-weight="700" font-size="32" direction="rtl" writing-mode="rl-tb" transform="matrix(1 0 0 1 1897.92 2095)" x="11.4583">)</text><text fill="#767171" font-family="Basis Grotesque Arabic Pro,Basis Grotesque Arabic Pro_MSFontService,sans-serif" font-weight="700" font-size="32" transform="matrix(1 0 0 1 1999.35 2095)"> </text><rect x="201" y="1215" width="482" height="84.9999" fill="#D9D9D9"/><text fill="#0B4332" font-family="Basis Grotesque Arabic Pro,Basis Grotesque Arabic Pro_MSFontService,sans-serif" font-weight="700" font-size="32" direction="rtl" writing-mode="rl-tb" transform="matrix(1 0 0 1 296.848 1264)" x="291.042">التقييم الأولي للموقع</text><text fill="#0B4332" font-family="Basis Grotesque Arabic Pro,Basis Grotesque Arabic Pro_MSFontService,sans-serif" font-weight="700" font-size="32" transform="matrix(1 0 0 1 587.913 1264)"> </text><rect x="703" y="674" width="482" height="84.9999" fill="#D9D9D9"/><text fill="#0B4332" font-family="Basis Grotesque Arabic Pro,Basis Grotesque Arabic Pro_MSFontService,sans-serif" font-weight="700" font-size="32" direction="rtl" writing-mode="rl-tb" transform="matrix(1 0 0 1 855.161 723)" x="177.031">بدائل التطوير</text><text fill="#0B4332" font-family="Basis Grotesque Arabic Pro,Basis Grotesque Arabic Pro_MSFontService,sans-serif" font-weight="700" font-size="32" transform="matrix(1 0 0 1 1032.21 723)"> </text><rect x="1208" y="674" width="481" height="84.9999" fill="#D9D9D9"/><text fill="#767171" font-family="Basis Grotesque Arabic Pro,Basis Grotesque Arabic Pro_MSFontService,sans-serif" font-weight="700" font-size="32" direction="rtl" writing-mode="rl-tb" transform="matrix(1 0 0 1 1328.95 723)" x="238.906">نقل ملكية الموقع</text><text fill="#767171" font-family="Basis Grotesque Arabic Pro,Basis Grotesque Arabic Pro_MSFontService,sans-serif" font-weight="700" font-size="32" transform="matrix(1 0 0 1 1567.88 723)"> </text><rect x="1208" y="1078" width="481" height="85.9999" fill="#D9D9D9"/><text fill="#767171" font-family="Basis Grotesque Arabic Pro,Basis Grotesque Arabic Pro_MSFontService,sans-serif" font-weight="700" font-size="32" direction="rtl" writing-mode="rl-tb" transform="matrix(1 0 0 1 1324.66 1128)" x="247.5">استراتيجية التطوير</text><text fill="#767171" font-family="Basis Grotesque Arabic Pro,Basis Grotesque Arabic Pro_MSFontService,sans-serif" font-weight="700" font-size="32" transform="matrix(1 0 0 1 1572.18 1128)"> </text><rect x="1208" y="1483" width="481" height="84.9999" fill="#D9D9D9"/><text fill="#767171" font-family="Basis Grotesque Arabic Pro,Basis Grotesque Arabic Pro_MSFontService,sans-serif" font-weight="700" font-size="32" direction="rtl" writing-mode="rl-tb" transform="matrix(1 0 0 1 1313.48 1532)" x="269.844">إعداد فريق المشروع</text><text fill="#767171" font-family="Basis Grotesque Arabic Pro,Basis Grotesque Arabic Pro_MSFontService,sans-serif" font-weight="700" font-size="32" transform="matrix(1 0 0 1 1583.35 1532)"> </text><rect x="1708" y="674" width="482" height="84.9999" fill="#D9D9D9"/><text fill="#0B4332" font-family="Basis Grotesque Arabic Pro,Basis Grotesque Arabic Pro_MSFontService,sans-serif" font-weight="700" font-size="32" direction="rtl" writing-mode="rl-tb" transform="matrix(1 0 0 1 1796.52 723)" x="304.219">المخطط العام الرئيسي</text><text fill="#0B4332" font-family="Basis Grotesque Arabic Pro,Basis Grotesque Arabic Pro_MSFontService,sans-serif" font-weight="700" font-size="32" transform="matrix(1 0 0 1 2100.76 723)"> </text><rect x="1708" y="944" width="482" height="85.9999" fill="#D9D9D9"/><text fill="#0B4332" font-family="Basis Grotesque Arabic Pro,Basis Grotesque Arabic Pro_MSFontService,sans-serif" font-weight="700" font-size="32" direction="rtl" writing-mode="rl-tb" transform="matrix(1 0 0 1 1711.44 975)" x="465.781">تصميم البنية التحتية وخطة جودة </text><text fill="#0B4332" font-family="Basis Grotesque Arabic Pro,Basis Grotesque Arabic Pro_MSFontService,sans-serif" font-weight="700" font-size="32" direction="rtl" writing-mode="rl-tb" transform="matrix(1 0 0 1 1909.1 1014)" x="79.0625">الحياة</text><text fill="#0B4332" font-family="Basis Grotesque Arabic Pro,Basis Grotesque Arabic Pro_MSFontService,sans-serif" font-weight="700" font-size="32" transform="matrix(1 0 0 1 1988.18 1014)"> </text><rect x="1708" y="1490" width="482" height="84.9999" fill="#D9D9D9"/><text fill="#767171" font-family="Basis Grotesque Arabic Pro,Basis Grotesque Arabic Pro_MSFontService,sans-serif" font-weight="700" font-size="32" direction="rtl" writing-mode="rl-tb" transform="matrix(1 0 0 1 1866.99 1539)" x="163.281">خطة التنفيذ</text><text fill="#767171" font-family="Basis Grotesque Arabic Pro,Basis Grotesque Arabic Pro_MSFontService,sans-serif" font-weight="700" font-size="32" transform="matrix(1 0 0 1 2030.29 1539)"> </text><rect x="1708" y="1215" width="482" height="84.9999" fill="#D9D9D9"/><text fill="#0B4332" font-family="Basis Grotesque Arabic Pro,Basis Grotesque Arabic Pro_MSFontService,sans-serif" font-weight="700" font-size="32" direction="rtl" writing-mode="rl-tb" transform="matrix(1 0 0 1 1829.46 1264)" x="238.333">إرشادات التصميم</text><text fill="#0B4332" font-family="Basis Grotesque Arabic Pro,Basis Grotesque Arabic Pro_MSFontService,sans-serif" font-weight="700" font-size="32" transform="matrix(1 0 0 1 2067.82 1264)"> </text><rect x="2709" y="674" width="482" height="84.9999" fill="#D9D9D9"/><text fill="#767171" font-family="Basis Grotesque Arabic Pro,Basis Grotesque Arabic Pro_MSFontService,sans-serif" font-weight="700" font-size="32" direction="rtl" writing-mode="rl-tb" transform="matrix(1 0 0 1 2775.91 723)" x="348.906">التسويق ومبيعات الأصول</text><text fill="#767171" font-family="Basis Grotesque Arabic Pro,Basis Grotesque Arabic Pro_MSFontService,sans-serif" font-weight="700" font-size="32" transform="matrix(1 0 0 1 3124.84 723)"> </text><rect x="2709" y="1078" width="482" height="85.9999" fill="#D9D9D9"/><text fill="#767171" font-family="Basis Grotesque Arabic Pro,Basis Grotesque Arabic Pro_MSFontService,sans-serif" font-weight="700" font-size="32" direction="rtl" writing-mode="rl-tb" transform="matrix(1 0 0 1 2874.45 1128)" x="274.427">تشييد البنية التحتية </text><text fill="#767171" font-family="Basis Grotesque Arabic Pro,Basis Grotesque Arabic Pro_MSFontService,sans-serif" font-weight="700" font-size="32" direction="rtl" writing-mode="rl-tb" transform="matrix(1 0 0 1 2848.67 1128)" x="25.7812">/ </text><text fill="#767171" font-family="Basis Grotesque Arabic Pro,Basis Grotesque Arabic Pro_MSFontService,sans-serif" font-weight="700" font-size="32" direction="rtl" writing-mode="rl-tb" transform="matrix(1 0 0 1 2751.85 1128)" x="96.8229">المباني</text><text fill="#767171" font-family="Basis Grotesque Arabic Pro,Basis Grotesque Arabic Pro_MSFontService,sans-serif" font-weight="700" font-size="32" transform="matrix(1 0 0 1 3148.9 1128)"> </text><rect x="2709" y="1486" width="482" height="84.9999" fill="#D9D9D9"/><text fill="#767171" font-family="Basis Grotesque Arabic Pro,Basis Grotesque Arabic Pro_MSFontService,sans-serif" font-weight="700" font-size="32" direction="rtl" writing-mode="rl-tb" transform="matrix(1 0 0 1 2850.39 1535)" x="199.948">إدارة الإنشاءات</text><text fill="#767171" font-family="Basis Grotesque Arabic Pro,Basis Grotesque Arabic Pro_MSFontService,sans-serif" font-weight="700" font-size="32" transform="matrix(1 0 0 1 3050.36 1535)"> </text><rect x="2208" y="1078" width="482" height="85.9999" fill="#D9D9D9"/><text fill="#0B4332" font-family="Basis Grotesque Arabic Pro,Basis Grotesque Arabic Pro_MSFontService,sans-serif" font-weight="700" font-size="32" direction="rtl" writing-mode="rl-tb" transform="matrix(1 0 0 1 2276.9 1128)" x="343.75">موافقة تصميم المطورين</text><text fill="#0B4332" font-family="Basis Grotesque Arabic Pro,Basis Grotesque Arabic Pro_MSFontService,sans-serif" font-weight="700" font-size="32" transform="matrix(1 0 0 1 2620.68 1128)"> </text><rect x="2208" y="1486" width="482" height="84.9999" fill="#D9D9D9"/><text fill="#0B4332" font-family="Basis Grotesque Arabic Pro,Basis Grotesque Arabic Pro_MSFontService,sans-serif" font-weight="700" font-size="32" direction="rtl" writing-mode="rl-tb" transform="matrix(1 0 0 1 2275.47 1535)" x="346.615">ترخيص مبيعات المطورين</text><text fill="#0B4332" font-family="Basis Grotesque Arabic Pro,Basis Grotesque Arabic Pro_MSFontService,sans-serif" font-weight="700" font-size="32" transform="matrix(1 0 0 1 2622.11 1535)"> </text><rect x="3215" y="674" width="482" height="84.9999" fill="#D9D9D9"/><text fill="#767171" font-family="Basis Grotesque Arabic Pro,Basis Grotesque Arabic Pro_MSFontService,sans-serif" font-weight="700" font-size="32" direction="rtl" writing-mode="rl-tb" transform="matrix(1 0 0 1 3656.89 723)" x="8.59375"> </text><text fill="#767171" font-family="Basis Grotesque Arabic Pro,Basis Grotesque Arabic Pro_MSFontService,sans-serif" font-weight="700" font-size="32" direction="rtl" writing-mode="rl-tb" transform="matrix(1 0 0 1 3247.26 723)" x="409.635">البنية التحتية وتسليم المجتمع</text><text fill="#767171" font-family="Basis Grotesque Arabic Pro,Basis Grotesque Arabic Pro_MSFontService,sans-serif" font-weight="700" font-size="32" transform="matrix(1 0 0 1 3665.51 723)"> </text><rect x="2709" y="1890" width="482" height="85.9999" fill="#D9D9D9"/><text fill="#767171" font-family="Basis Grotesque Arabic Pro,Basis Grotesque Arabic Pro_MSFontService,sans-serif" font-weight="700" font-size="32" direction="rtl" writing-mode="rl-tb" transform="matrix(1 0 0 1 2747.26 1940)" x="406.198">البنية التحتية وتقديم الخدمات</text><text fill="#767171" font-family="Basis Grotesque Arabic Pro,Basis Grotesque Arabic Pro_MSFontService,sans-serif" font-weight="700" font-size="32" transform="matrix(1 0 0 1 3153.48 1940)"> </text><rect x="3719" y="1755" width="482" height="86.0002" fill="#D9D9D9"/><text fill="#767171" font-family="Basis Grotesque Arabic Pro,Basis Grotesque Arabic Pro_MSFontService,sans-serif" font-weight="700" font-size="32" direction="rtl" writing-mode="rl-tb" transform="matrix(1 0 0 1 3738.01 1786)" x="434.844">عمليات خدمات المجتمع وجودة </text><text fill="#767171" font-family="Basis Grotesque Arabic Pro,Basis Grotesque Arabic Pro_MSFontService,sans-serif" font-weight="700" font-size="32" direction="rtl" writing-mode="rl-tb" transform="matrix(1 0 0 1 3920.2 1825)" x="79.0625">الحياة</text><text fill="#767171" font-family="Basis Grotesque Arabic Pro,Basis Grotesque Arabic Pro_MSFontService,sans-serif" font-weight="700" font-size="32" transform="matrix(1 0 0 1 3999.29 1825)"> </text><rect x="1708" y="1755" width="482" height="85.0002" fill="#D9D9D9"/><text fill="#767171" font-family="Basis Grotesque Arabic Pro,Basis Grotesque Arabic Pro_MSFontService,sans-serif" font-weight="700" font-size="32" direction="rtl" writing-mode="rl-tb" transform="matrix(1 0 0 1 1790.79 1804)" x="315.677">إطلاق الخطة التسويقية</text><text fill="#767171" font-family="Basis Grotesque Arabic Pro,Basis Grotesque Arabic Pro_MSFontService,sans-serif" font-weight="700" font-size="32" transform="matrix(1 0 0 1 2106.49 1804)"> </text><rect x="703" y="1483" width="482" height="84.9999" fill="#D9D9D9"/><text fill="#767171" font-family="Basis Grotesque Arabic Pro,Basis Grotesque Arabic Pro_MSFontService,sans-serif" font-weight="700" font-size="32" direction="rtl" writing-mode="rl-tb" transform="matrix(1 0 0 1 742.01 1513)" x="394.74">استراتيجية التسويق والعلامة </text><text fill="#767171" font-family="Basis Grotesque Arabic Pro,Basis Grotesque Arabic Pro_MSFontService,sans-serif" font-weight="700" font-size="32" direction="rtl" writing-mode="rl-tb" transform="matrix(1 0 0 1 892.114 1552)" x="103.125">التجارية</text><text fill="#767171" font-family="Basis Grotesque Arabic Pro,Basis Grotesque Arabic Pro_MSFontService,sans-serif" font-weight="700" font-size="32" transform="matrix(1 0 0 1 995.262 1552)"> </text><rect x="3215" y="1216" width="482" height="85.0002" fill="#D9D9D9"/><text fill="#767171" font-family="Basis Grotesque Arabic Pro,Basis Grotesque Arabic Pro_MSFontService,sans-serif" font-weight="700" font-size="32" direction="rtl" writing-mode="rl-tb" transform="matrix(1 0 0 1 3371.01 1265)" x="170.729">الفرز والإفراغ</text><text fill="#767171" font-family="Basis Grotesque Arabic Pro,Basis Grotesque Arabic Pro_MSFontService,sans-serif" font-weight="700" font-size="32" transform="matrix(1 0 0 1 3541.76 1265)"> </text><rect x="3719" y="674" width="482" height="84.9999" fill="#D9D9D9"/><text fill="#767171" font-family="Basis Grotesque Arabic Pro,Basis Grotesque Arabic Pro_MSFontService,sans-serif" font-weight="700" font-size="32" direction="rtl" writing-mode="rl-tb" transform="matrix(1 0 0 1 3865.2 723)" x="189.062">جمعية الملاك</text><text fill="#767171" font-family="Basis Grotesque Arabic Pro,Basis Grotesque Arabic Pro_MSFontService,sans-serif" font-weight="700" font-size="32" transform="matrix(1 0 0 1 4054.29 723)"> </text><rect x="2633.5" y="2351.5" width="54" height="53" stroke="#007552" stroke-width="4.58333" stroke-miterlimit="8" fill="#007552"/><rect x="2273.5" y="2351.5" width="54" height="53" stroke="#FFF1B1" stroke-width="4.58333" stroke-miterlimit="8" fill="#FFF1B1"/><text font-family="Basis Grotesque Arabic Pro,Basis Grotesque Arabic Pro_MSFontService,sans-serif" font-weight="700" font-size="32" direction="rtl" writing-mode="rl-tb" transform="matrix(1 0 0 1 2108.65 2389)" x="142.083">غير مكتمل</text><text font-family="Basis Grotesque Arabic Pro,Basis Grotesque Arabic Pro_MSFontService,sans-serif" font-weight="700" font-size="32" direction="rtl" writing-mode="rl-tb" transform="matrix(1 0 0 1 2520.45 2389)" x="91.0938">مكتمل</text><rect x="1913.5" y="2351.5" width="54" height="53" stroke="#45A0B4" stroke-width="4.58333" stroke-miterlimit="8" fill="#45A0B4"/><text font-family="Basis Grotesque Arabic Pro,Basis Grotesque Arabic Pro_MSFontService,sans-serif" font-weight="700" font-size="32" direction="rtl" writing-mode="rl-tb" transform="matrix(1 0 0 1 1723.77 2389)" x="166.146">تطوير شامل</text></g></svg>