<svg width="4020" height="2070" xmlns="http://www.w3.org/2000/svg" xmlns:xlink="http://www.w3.org/1999/xlink" xml:space="preserve" overflow="hidden"><g transform="translate(-195 -373)"><path d="M3185.5 634.5 3185.5 2057.44" stroke="#9A9A9A" stroke-width="3.4375" stroke-linecap="round" stroke-miterlimit="8" stroke-dasharray="0 6.875" fill="none" fill-rule="evenodd"/><path d="M3191.5 512.5 3683.93 512.5 3700.5 581.5 3683.93 650.5 3191.5 650.5 3208.07 581.5Z" stroke="#FFFFFF" stroke-width="3.09357" stroke-miterlimit="8" fill="#0E5640" fill-rule="evenodd"/><text fill="#FFFFFF" font-family="Arial,Arial_MSFontService,sans-serif" font-weight="400" font-size="55" transform="matrix(1 0 0 1 3376.97 593)">​</text><text fill="#FFFFFF" font-family="Basis Grotesque Arabic Pro,Basis Grotesque Arabic Pro_MSFontService,sans-serif" font-weight="400" font-size="55" direction="rtl" writing-mode="rl-tb" transform="matrix(1 0 0 1 3376.95 593)" x="170.156">التسليم</text><rect x="3213.5" y="671.5" width="488" height="528" stroke="#0E5640" stroke-width="6.875" stroke-miterlimit="8" fill="#F2F2F2"/><rect x="3213.5" y="1212.5" width="488" height="528" stroke="#0E5640" stroke-width="6.875" stroke-miterlimit="8" stroke-dasharray="27.5 20.625 6.875 20.625" fill="#F2F2F2"/><rect x="3213.5" y="1753.5" width="488" height="528" stroke="#0E5640" stroke-width="6.875" stroke-miterlimit="8" stroke-dasharray="27.5 20.625 6.875 20.625" fill="#F2F2F2"/><path d="M1696.5 512.5 2181.93 512.5 2198.5 581.5 2181.93 650.5 1696.5 650.5 1713.07 581.5Z" stroke="#FFFFFF" stroke-width="3.09357" stroke-miterlimit="8" fill="#0E5640" fill-rule="evenodd"/><text fill="#FFFFFF" font-family="Arial,Arial_MSFontService,sans-serif" font-weight="400" font-size="55" transform="matrix(1 0 0 1 1779.3 593)">​</text><text fill="#FFFFFF" font-family="Basis Grotesque Arabic Pro,Basis Grotesque Arabic Pro_MSFontService,sans-serif" font-weight="400" font-size="55" direction="rtl" writing-mode="rl-tb" transform="matrix(1 0 0 1 1779.28 593)" x="368.385">المخطط الرئيسي</text><path d="M2191.5 512.5 2675.94 512.5 2692.5 581.5 2675.94 650.5 2191.5 650.5 2208.07 581.5Z" stroke="#FFFFFF" stroke-width="3.09357" stroke-miterlimit="8" fill="#0E5640" fill-rule="evenodd"/><text fill="#FFFFFF" font-family="Arial,Arial_MSFontService,sans-serif" font-weight="400" font-size="55" transform="matrix(1 0 0 1 2252.03 593)">​</text><text fill="#FFFFFF" font-family="Basis Grotesque Arabic Pro,Basis Grotesque Arabic Pro_MSFontService,sans-serif" font-weight="400" font-size="55" direction="rtl" writing-mode="rl-tb" transform="matrix(1 0 0 1 2252.01 593)" x="411.927">التصميم المعماري</text><path d="M196.5 374.5 1172.65 374.5 1188.5 440.5 1172.65 506.5 196.5 506.5Z" stroke="#FFFFFF" stroke-width="3.09357" stroke-linejoin="round" stroke-miterlimit="10" fill="#0E5640" fill-rule="evenodd"/><text fill="#FFFFFF" font-family="Arial,Arial_MSFontService,sans-serif" font-weight="400" font-size="55" transform="matrix(1 0 0 1 589.115 452)">​</text><text fill="#FFFFFF" font-family="Basis Grotesque Arabic Pro,Basis Grotesque Arabic Pro_MSFontService,sans-serif" font-weight="400" font-size="55" direction="rtl" writing-mode="rl-tb" transform="matrix(1 0 0 1 589.093 452)" x="296.771">اقتراح التطوير</text><path d="M196.5 512.5 682.935 512.5 699.5 581.5 682.935 650.5 196.5 650.5Z" stroke="#FFFFFF" stroke-width="3.09357" stroke-linejoin="round" stroke-miterlimit="10" fill="#0E5640" fill-rule="evenodd"/><text fill="#FFFFFF" font-family="Arial,Arial_MSFontService,sans-serif" font-weight="400" font-size="55" transform="matrix(1 0 0 1 387.571 593)">​</text><text fill="#FFFFFF" font-family="Basis Grotesque Arabic Pro,Basis Grotesque Arabic Pro_MSFontService,sans-serif" font-weight="400" font-size="55" direction="rtl" writing-mode="rl-tb" transform="matrix(1 0 0 1 387.548 593)" x="143.802">تحضير</text><rect x="199.5" y="671.5" width="488" height="528" stroke="#0E5640" stroke-width="6.875" stroke-miterlimit="8" fill="#F2F2F2"/><rect x="199.5" y="1212.5" width="488" height="528" stroke="#0E5640" stroke-width="6.875" stroke-miterlimit="8" fill="#F2F2F2"/><rect x="199.5" y="1753.5" width="488" height="528" stroke="#0E5640" stroke-width="6.875" stroke-miterlimit="8" fill="#F2F2F2"/><path d="M691.5 512.5 1179.93 512.5 1196.5 581.5 1179.93 650.5 691.5 650.5 708.066 581.5Z" stroke="#FFFFFF" stroke-width="3.09357" stroke-miterlimit="8" fill="#0E5640" fill-rule="evenodd"/><text fill="#FFFFFF" font-family="Arial,Arial_MSFontService,sans-serif" font-weight="400" font-size="55" transform="matrix(1 0 0 1 801.819 593)">​</text><text fill="#FFFFFF" font-family="Basis Grotesque Arabic Pro,Basis Grotesque Arabic Pro_MSFontService,sans-serif" font-weight="400" font-size="55" direction="rtl" writing-mode="rl-tb" transform="matrix(1 0 0 1 801.796 593)" x="316.25">خيارات التطوير</text><rect x="700.5" y="671.5" width="488" height="396" stroke="#0E5640" stroke-width="6.875" stroke-miterlimit="8" fill="#F2F2F2"/><rect x="700.5" y="1076.5" width="488" height="396" stroke="#0E5640" stroke-width="6.875" stroke-miterlimit="8" fill="#F2F2F2"/><rect x="700.5" y="1885.5" width="488" height="396" stroke="#0E5640" stroke-width="6.875" stroke-miterlimit="8" fill="#F2F2F2"/><rect x="700.5" y="1480.5" width="488" height="396" stroke="#0E5640" stroke-width="6.875" stroke-miterlimit="8" fill="#F2F2F2"/><path d="M1202.5 512.5 1686.93 512.5 1703.5 581.5 1686.93 650.5 1202.5 650.5 1219.07 581.5Z" stroke="#FFFFFF" stroke-width="3.09357" stroke-miterlimit="8" fill="#0E5640" fill-rule="evenodd"/><text fill="#FFFFFF" font-family="Arial,Arial_MSFontService,sans-serif" font-weight="400" font-size="55" transform="matrix(1 0 0 1 1274.77 593)">​</text><text fill="#FFFFFF" font-family="Basis Grotesque Arabic Pro,Basis Grotesque Arabic Pro_MSFontService,sans-serif" font-weight="400" font-size="55" direction="rtl" writing-mode="rl-tb" transform="matrix(1 0 0 1 1274.75 593)" x="388.438">تخطيط استراتيجي</text><rect x="1205.5" y="671.5" width="488" height="396" stroke="#0E5640" stroke-width="6.875" stroke-miterlimit="8" fill="#F2F2F2"/><rect x="1205.5" y="1076.5" width="488" height="396" stroke="#0E5640" stroke-width="6.875" stroke-miterlimit="8" fill="#F2F2F2"/><rect x="1205.5" y="1480.5" width="488" height="396" stroke="#0E5640" stroke-width="6.875" stroke-miterlimit="8" fill="#F2F2F2"/><rect x="1205.5" y="1885.5" width="488" height="396" stroke="#0E5640" stroke-width="6.875" stroke-miterlimit="8" fill="#F2F2F2"/><rect x="1704.5" y="671.5" width="488" height="258" stroke="#0E5640" stroke-width="6.875" stroke-miterlimit="8" fill="#F2F2F2"/><rect x="1704.5" y="942.5" width="488" height="257" stroke="#0E5640" stroke-width="6.875" stroke-miterlimit="8" fill="#F2F2F2"/><rect x="1704.5" y="1212.5" width="488" height="257" stroke="#0E5640" stroke-width="6.875" stroke-miterlimit="8" fill="#F2F2F2"/><rect x="1704.5" y="1482.5" width="488" height="258" stroke="#0E5640" stroke-width="6.875" stroke-miterlimit="8" fill="#F2F2F2"/><rect x="1704.5" y="1753.5" width="488" height="257" stroke="#0E5640" stroke-width="6.875" stroke-miterlimit="8" fill="#F2F2F2"/><rect x="1704.5" y="2023.5" width="488" height="258" stroke="#0E5640" stroke-width="6.875" stroke-miterlimit="8" fill="#F2F2F2"/><rect x="2707.5" y="671.5" width="488" height="393" stroke="#0E5640" stroke-width="6.875" stroke-miterlimit="8" stroke-dasharray="27.5 20.625 6.875 20.625" fill="#F2F2F2"/><rect x="2707.5" y="1076.5" width="488" height="392" stroke="#0E5640" stroke-width="6.875" stroke-miterlimit="8" stroke-dasharray="27.5 20.625 6.875 20.625" fill="#F2F2F2"/><rect x="2707.5" y="1480.5" width="488" height="393" stroke="#0E5640" stroke-width="6.875" stroke-miterlimit="8" stroke-dasharray="27.5 20.625 6.875 20.625" fill="#F2F2F2"/><rect x="2707.5" y="1885.5" width="488" height="392" stroke="#0E5640" stroke-width="6.875" stroke-miterlimit="8" stroke-dasharray="27.5 20.625 6.875 20.625" fill="#F2F2F2"/><path d="M3707.5 512.5 4195.93 512.5 4212.5 581.5 4195.93 650.5 3707.5 650.5 3724.07 581.5Z" stroke="#FFFFFF" stroke-width="3.09357" stroke-miterlimit="8" fill="#0E5640" fill-rule="evenodd"/><text fill="#FFFFFF" font-family="Arial,Arial_MSFontService,sans-serif" font-weight="400" font-size="55" transform="matrix(1 0 0 1 3837.64 593)">​</text><text fill="#FFFFFF" font-family="Basis Grotesque Arabic Pro,Basis Grotesque Arabic Pro_MSFontService,sans-serif" font-weight="400" font-size="55" direction="rtl" writing-mode="rl-tb" transform="matrix(1 0 0 1 3837.62 593)" x="276.719">إدارة الأصول</text><rect x="3716.5" y="671.5" width="488" height="528" stroke="#0E5640" stroke-width="6.875" stroke-miterlimit="8" stroke-dasharray="27.5 20.625 6.875 20.625" fill="#F2F2F2"/><rect x="3716.5" y="1212.5" width="488" height="528" stroke="#0E5640" stroke-width="6.875" stroke-miterlimit="8" fill="#F2F2F2"/><rect x="3716.5" y="1753.5" width="488" height="528" stroke="#0E5640" stroke-width="6.875" stroke-miterlimit="8" fill="#F2F2F2"/><path d="M2694.5 512.5 3185.93 512.5 3202.5 581.5 3185.93 650.5 2694.5 650.5 2711.07 581.5Z" stroke="#FFFFFF" stroke-width="3.09357" stroke-miterlimit="8" fill="#0E5640" fill-rule="evenodd"/><text fill="#FFFFFF" font-family="Arial,Arial_MSFontService,sans-serif" font-weight="400" font-size="55" transform="matrix(1 0 0 1 2892.86 593)">​</text><text fill="#FFFFFF" font-family="Basis Grotesque Arabic Pro,Basis Grotesque Arabic Pro_MSFontService,sans-serif" font-weight="400" font-size="55" direction="rtl" writing-mode="rl-tb" transform="matrix(1 0 0 1 2892.84 593)" x="143.802">التنفيذ</text><path d="M1204.5 374.5 2667.66 374.5 2683.5 440.501 2667.66 506.5 1204.5 506.5 1220.34 440.501Z" stroke="#FFFFFF" stroke-width="3.09357" stroke-miterlimit="8" fill="#0E5640" fill-rule="evenodd"/><text fill="#FFFFFF" font-family="Arial,Arial_MSFontService,sans-serif" font-weight="400" font-size="55" transform="matrix(1 0 0 1 1747.11 452)">​</text><text fill="#FFFFFF" font-family="Basis Grotesque Arabic Pro,Basis Grotesque Arabic Pro_MSFontService,sans-serif" font-weight="400" font-size="55" direction="rtl" writing-mode="rl-tb" transform="matrix(1 0 0 1 1747.08 452)" x="426.25">التخطيط والتصميم</text><path d="M2689.5 374.5 3684.66 374.5 3700.5 440.5 3684.66 506.5 2689.5 506.5 2705.34 440.5Z" stroke="#FFFFFF" stroke-width="3.09357" stroke-miterlimit="8" fill="#0E5640" fill-rule="evenodd"/><text fill="#FFFFFF" font-family="Arial,Arial_MSFontService,sans-serif" font-weight="400" font-size="55" transform="matrix(1 0 0 1 3158.16 452)">​</text><text fill="#FFFFFF" font-family="Basis Grotesque Arabic Pro,Basis Grotesque Arabic Pro_MSFontService,sans-serif" font-weight="400" font-size="55" direction="rtl" writing-mode="rl-tb" transform="matrix(1 0 0 1 3158.14 452)" x="105.417">البناء</text><path d="M3707.5 374.5 4196.65 374.5 4212.5 440.5 4196.65 506.5 3707.5 506.5 3723.34 440.5Z" stroke="#FFFFFF" stroke-width="3.09357" stroke-miterlimit="8" fill="#0E5640" fill-rule="evenodd"/><text fill="#FFFFFF" font-family="Arial,Arial_MSFontService,sans-serif" font-weight="400" font-size="55" transform="matrix(1 0 0 1 3885.04 452)">​</text><text fill="#FFFFFF" font-family="Basis Grotesque Arabic Pro,Basis Grotesque Arabic Pro_MSFontService,sans-serif" font-weight="400" font-size="55" direction="rtl" writing-mode="rl-tb" transform="matrix(1 0 0 1 3885.02 452)" x="181.615">التشغيل</text><path d="M1706.5 636.5 1706.5 2059.44" stroke="#9A9A9A" stroke-width="3.4375" stroke-linecap="round" stroke-miterlimit="8" stroke-dasharray="0 6.875" fill="none" fill-rule="evenodd"/><path d="M2658.5 634.5 2658.5 2057.44" stroke="#9A9A9A" stroke-width="3.4375" stroke-linecap="round" stroke-miterlimit="8" stroke-dasharray="0 6.875" fill="none" fill-rule="evenodd"/><path d="M3696.5 640.5 3696.5 2063.44" stroke="#9A9A9A" stroke-width="3.4375" stroke-linecap="round" stroke-miterlimit="8" stroke-dasharray="0 6.875" fill="none" fill-rule="evenodd"/><path d="M4200.5 630.5 4200.5 2053.44" stroke="#9A9A9A" stroke-width="3.4375" stroke-linecap="round" stroke-miterlimit="8" stroke-dasharray="0 6.875" fill="none" fill-rule="evenodd"/><rect x="2204.5" y="671.5" width="488" height="393" stroke="#0E5640" stroke-width="6.875" stroke-miterlimit="8" fill="#F2F2F2"/><rect x="2204.5" y="1076.5" width="488" height="392" stroke="#0E5640" stroke-width="6.875" stroke-miterlimit="8" stroke-dasharray="27.5 20.625 6.875 20.625" fill="#F2F2F2"/><rect x="2204.5" y="1480.5" width="488" height="393" stroke="#0E5640" stroke-width="6.875" stroke-miterlimit="8" stroke-dasharray="27.5 20.625 6.875 20.625" fill="#F2F2F2"/><rect x="2204.5" y="1885.5" width="488" height="392" stroke="#0E5640" stroke-width="6.875" stroke-miterlimit="8" fill="#F2F2F2"/><text font-family="Basis Grotesque Arabic Pro,Basis Grotesque Arabic Pro_MSFontService,sans-serif" font-weight="700" font-size="37" direction="rtl" writing-mode="rl-tb" transform="matrix(1 0 0 1 2262.51 2067)" x="378.698">استراتيجية تنفيذ المباني </text><text font-family="Basis Grotesque Arabic Pro,Basis Grotesque Arabic Pro_MSFontService,sans-serif" font-weight="700" font-size="37" direction="rtl" writing-mode="rl-tb" transform="matrix(1 0 0 1 2408.9 2111)" x="96.25">العامة</text><rect x="2325" y="2368" width="361" height="60.9998" fill="#DCEEF8"/><text font-family="Basis Grotesque Arabic Pro,Basis Grotesque Arabic Pro_MSFontService,sans-serif" font-weight="700" font-size="37" direction="rtl" writing-mode="rl-tb" transform="matrix(1 0 0 1 2358.66 2406)" x="293.333">التسويق والمبيعات</text><rect x="1204" y="2368" width="266" height="60.9998" fill="#BCFFBB"/><text font-family="Basis Grotesque Arabic Pro,Basis Grotesque Arabic Pro_MSFontService,sans-serif" font-weight="700" font-size="37" direction="rtl" writing-mode="rl-tb" transform="matrix(1 0 0 1 1267.01 2406)" x="139.792">الاستثمار</text><rect x="1475" y="2368" width="460" height="60.9998" fill="#5578D8"/><text fill="#FFFFFF" font-family="Basis Grotesque Arabic Pro,Basis Grotesque Arabic Pro_MSFontService,sans-serif" font-weight="700" font-size="37" direction="rtl" writing-mode="rl-tb" transform="matrix(1 0 0 1 1589.71 2406)" x="230.885">التطوير العقاري</text><rect x="1955" y="2368" width="352" height="60.9998" fill="#FFE2C1"/><text font-family="Basis Grotesque Arabic Pro,Basis Grotesque Arabic Pro_MSFontService,sans-serif" font-weight="700" font-size="37" direction="rtl" writing-mode="rl-tb" transform="matrix(1 0 0 1 2026.16 2406)" x="209.688">لإدارة الاصول</text><text font-family="Basis Grotesque Arabic Pro,Basis Grotesque Arabic Pro_MSFontService,sans-serif" font-weight="700" font-size="37" transform="matrix(1 0 0 1 2235.87 2406)"> </text><text font-family="Basis Grotesque Arabic Pro,Basis Grotesque Arabic Pro_MSFontService,sans-serif" font-weight="700" font-size="37" direction="rtl" writing-mode="rl-tb" transform="matrix(1 0 0 1 2729.47 2406)" x="218.281">المخطط العام</text><text font-family="Basis Grotesque Arabic Pro,Basis Grotesque Arabic Pro_MSFontService,sans-serif" font-weight="700" font-size="37" direction="rtl" writing-mode="rl-tb" transform="matrix(1 0 0 1 3052.46 2406)" x="75.625">البناء</text><rect x="2715.5" y="2368.5" width="245" height="61.0002" stroke="#4472C4" stroke-width="6.875" stroke-linecap="round" stroke-linejoin="round" stroke-miterlimit="10" fill="none"/><rect x="2990.5" y="2368.5" width="196" height="61.0002" stroke="#4472C4" stroke-width="6.875" stroke-linecap="round" stroke-linejoin="round" stroke-miterlimit="10" stroke-dasharray="13.75 13.75" fill="none"/><rect x="199" y="671" width="485" height="85.9999" fill="#BCFFBB"/><text font-family="Basis Grotesque Arabic Pro,Basis Grotesque Arabic Pro_MSFontService,sans-serif" font-weight="700" font-size="37" direction="rtl" writing-mode="rl-tb" transform="matrix(1 0 0 1 270.134 700)" x="331.719">دراسة السوق وتعيين </text><text font-family="Basis Grotesque Arabic Pro,Basis Grotesque Arabic Pro_MSFontService,sans-serif" font-weight="700" font-size="37" direction="rtl" writing-mode="rl-tb" transform="matrix(1 0 0 1 347.478 744)" x="187.344">الاستشاريين</text><text font-family="Basis Grotesque Arabic Pro,Basis Grotesque Arabic Pro_MSFontService,sans-serif" font-weight="700" font-size="37" transform="matrix(1 0 0 1 534.844 744)"> </text><rect x="199" y="1753" width="485" height="84.9999" fill="#BCFFBB"/><text font-family="Basis Grotesque Arabic Pro,Basis Grotesque Arabic Pro_MSFontService,sans-serif" font-weight="700" font-size="37" direction="rtl" writing-mode="rl-tb" transform="matrix(1 0 0 1 313.962 1803)" x="254.375">ملخص المشروع</text><text font-family="Basis Grotesque Arabic Pro,Basis Grotesque Arabic Pro_MSFontService,sans-serif" font-weight="700" font-size="37" transform="matrix(1 0 0 1 568.36 1803)"> </text><rect x="700" y="1076" width="485" height="84.9999" fill="#BCFFBB"/><text font-family="Basis Grotesque Arabic Pro,Basis Grotesque Arabic Pro_MSFontService,sans-serif" font-weight="700" font-size="37" direction="rtl" writing-mode="rl-tb" transform="matrix(1 0 0 1 728.186 1126)" x="428.542">دراسة جدوى خيارات التطوير</text><text font-family="Basis Grotesque Arabic Pro,Basis Grotesque Arabic Pro_MSFontService,sans-serif" font-weight="700" font-size="37" transform="matrix(1 0 0 1 1156.75 1126)"> </text><rect x="700" y="1885" width="485" height="84.9999" fill="#BCFFBB"/><text font-family="Basis Grotesque Arabic Pro,Basis Grotesque Arabic Pro_MSFontService,sans-serif" font-weight="700" font-size="37" direction="rtl" writing-mode="rl-tb" transform="matrix(1 0 0 1 898.056 1913)" x="230.885">لجنة الاستثمار </text><text font-family="Basis Grotesque Arabic Pro,Basis Grotesque Arabic Pro_MSFontService,sans-serif" font-weight="700" font-size="37" direction="rtl" writing-mode="rl-tb" transform="matrix(1 0 0 1 868.264 1913)" x="29.7917">/ </text><text font-family="Basis Grotesque Arabic Pro,Basis Grotesque Arabic Pro_MSFontService,sans-serif" font-weight="700" font-size="37" direction="rtl" writing-mode="rl-tb" transform="matrix(1 0 0 1 745.66 1913)" x="122.604">موافقة </text><text font-family="Basis Grotesque Arabic Pro,Basis Grotesque Arabic Pro_MSFontService,sans-serif" font-weight="700" font-size="37" direction="rtl" writing-mode="rl-tb" transform="matrix(1 0 0 1 837.9 1957)" x="209.115">مجلس الإدارة</text><text font-family="Basis Grotesque Arabic Pro,Basis Grotesque Arabic Pro_MSFontService,sans-serif" font-weight="700" font-size="37" transform="matrix(1 0 0 1 1047.04 1957)"> </text><rect x="1205" y="1881" width="485" height="85.9999" fill="#BCFFBB"/><text font-family="Basis Grotesque Arabic Pro,Basis Grotesque Arabic Pro_MSFontService,sans-serif" font-weight="700" font-size="37" direction="rtl" writing-mode="rl-tb" transform="matrix(1 0 0 1 1244.66 1932)" x="405.052">مشاركة المطورين الفرعيين</text><text font-family="Basis Grotesque Arabic Pro,Basis Grotesque Arabic Pro_MSFontService,sans-serif" font-weight="700" font-size="37" transform="matrix(1 0 0 1 1649.73 1932)"> </text><rect x="2204" y="671" width="485" height="85.9999" fill="#BCFFBB"/><text font-family="Basis Grotesque Arabic Pro,Basis Grotesque Arabic Pro_MSFontService,sans-serif" font-weight="700" font-size="37" direction="rtl" writing-mode="rl-tb" transform="matrix(1 0 0 1 2405.86 722)" x="257.24">تعميد المطورين </text><text font-family="Basis Grotesque Arabic Pro,Basis Grotesque Arabic Pro_MSFontService,sans-serif" font-weight="700" font-size="37" direction="rtl" writing-mode="rl-tb" transform="matrix(1 0 0 1 2376.07 722)" x="29.7917">/ </text><text font-family="Basis Grotesque Arabic Pro,Basis Grotesque Arabic Pro_MSFontService,sans-serif" font-weight="700" font-size="37" direction="rtl" writing-mode="rl-tb" transform="matrix(1 0 0 1 2229.98 722)" x="146.094">المقاولين</text><text font-family="Basis Grotesque Arabic Pro,Basis Grotesque Arabic Pro_MSFontService,sans-serif" font-weight="700" font-size="37" transform="matrix(1 0 0 1 2663.13 722)"> </text><rect x="3716" y="1219" width="485" height="84.9999" fill="#BCFFBB"/><text font-family="Basis Grotesque Arabic Pro,Basis Grotesque Arabic Pro_MSFontService,sans-serif" font-weight="700" font-size="37" direction="rtl" writing-mode="rl-tb" transform="matrix(1 0 0 1 3774.61 1270)" x="367.812">عمليات الأصول التجارية</text><rect x="3213" y="1753" width="485" height="84.9999" fill="#BCFFBB"/><text font-family="Basis Grotesque Arabic Pro,Basis Grotesque Arabic Pro_MSFontService,sans-serif" font-weight="700" font-size="37" direction="rtl" writing-mode="rl-tb" transform="matrix(1 0 0 1 3347.73 1803)" x="214.844">الإغلاق المالي</text><rect x="1708" y="2023" width="485" height="85" fill="#BCFFBB"/><text font-family="Basis Grotesque Arabic Pro,Basis Grotesque Arabic Pro_MSFontService,sans-serif" font-weight="700" font-size="37" direction="rtl" writing-mode="rl-tb" transform="matrix(1 0 0 1 1899.29 2052)" x="230.885">خطة العمليات </text><text font-family="Basis Grotesque Arabic Pro,Basis Grotesque Arabic Pro_MSFontService,sans-serif" font-weight="700" font-size="37" direction="rtl" writing-mode="rl-tb" transform="matrix(1 0 0 1 1886.11 2052)" x="13.1771">(</text><text font-family="Basis Grotesque Arabic Pro,Basis Grotesque Arabic Pro_MSFontService,sans-serif" font-weight="700" font-size="37" direction="rtl" writing-mode="rl-tb" transform="matrix(1 0 0 1 1760.07 2052)" x="126.042">المرافق </text><text font-family="Basis Grotesque Arabic Pro,Basis Grotesque Arabic Pro_MSFontService,sans-serif" font-weight="700" font-size="37" direction="rtl" writing-mode="rl-tb" transform="matrix(1 0 0 1 1825.08 2096)" x="263.542">والخدمات وغيرها</text><text font-family="Basis Grotesque Arabic Pro,Basis Grotesque Arabic Pro_MSFontService,sans-serif" font-weight="700" font-size="37" direction="rtl" writing-mode="rl-tb" transform="matrix(1 0 0 1 1811.91 2096)" x="13.1771">)</text><text font-family="Basis Grotesque Arabic Pro,Basis Grotesque Arabic Pro_MSFontService,sans-serif" font-weight="700" font-size="37" transform="matrix(1 0 0 1 2088.65 2096)"> </text><rect x="199" y="1212" width="485" height="84.9999" fill="#5578D8"/><text fill="#FFFFFF" font-family="Basis Grotesque Arabic Pro,Basis Grotesque Arabic Pro_MSFontService,sans-serif" font-weight="700" font-size="37" direction="rtl" writing-mode="rl-tb" transform="matrix(1 0 0 1 275.577 1263)" x="331.146">التقييم الأولي للموقع</text><text fill="#FFFFFF" font-family="Basis Grotesque Arabic Pro,Basis Grotesque Arabic Pro_MSFontService,sans-serif" font-weight="700" font-size="37" transform="matrix(1 0 0 1 606.745 1263)"> </text><rect x="700" y="671" width="485" height="85.9999" fill="#5578D8"/><text fill="#FFFFFF" font-family="Basis Grotesque Arabic Pro,Basis Grotesque Arabic Pro_MSFontService,sans-serif" font-weight="700" font-size="37" direction="rtl" writing-mode="rl-tb" transform="matrix(1 0 0 1 842.483 722)" x="199.948">بدائل التطوير</text><text fill="#FFFFFF" font-family="Basis Grotesque Arabic Pro,Basis Grotesque Arabic Pro_MSFontService,sans-serif" font-weight="700" font-size="37" transform="matrix(1 0 0 1 1042.45 722)"> </text><rect x="1205" y="671" width="485" height="85.9999" fill="#5578D8"/><text fill="#FFFFFF" font-family="Basis Grotesque Arabic Pro,Basis Grotesque Arabic Pro_MSFontService,sans-serif" font-weight="700" font-size="37" direction="rtl" writing-mode="rl-tb" transform="matrix(1 0 0 1 1310.55 722)" x="273.281">نقل ملكية الموقع</text><text fill="#FFFFFF" font-family="Basis Grotesque Arabic Pro,Basis Grotesque Arabic Pro_MSFontService,sans-serif" font-weight="700" font-size="37" transform="matrix(1 0 0 1 1583.85 722)"> </text><rect x="1200" y="1076" width="486" height="84.9999" fill="#5578D8"/><text fill="#FFFFFF" font-family="Basis Grotesque Arabic Pro,Basis Grotesque Arabic Pro_MSFontService,sans-serif" font-weight="700" font-size="37" direction="rtl" writing-mode="rl-tb" transform="matrix(1 0 0 1 1302.62 1126)" x="280.729">استراتيجية التطوير</text><text fill="#FFFFFF" font-family="Basis Grotesque Arabic Pro,Basis Grotesque Arabic Pro_MSFontService,sans-serif" font-weight="700" font-size="37" transform="matrix(1 0 0 1 1583.38 1126)"> </text><rect x="1197" y="1480" width="485" height="85.0002" fill="#5578D8"/><text fill="#FFFFFF" font-family="Basis Grotesque Arabic Pro,Basis Grotesque Arabic Pro_MSFontService,sans-serif" font-weight="700" font-size="37" direction="rtl" writing-mode="rl-tb" transform="matrix(1 0 0 1 1285.52 1531)" x="307.656">إعداد فريق المشروع</text><text fill="#FFFFFF" font-family="Basis Grotesque Arabic Pro,Basis Grotesque Arabic Pro_MSFontService,sans-serif" font-weight="700" font-size="37" transform="matrix(1 0 0 1 1593.2 1531)"> </text><rect x="1708" y="671" width="485" height="85.9999" fill="#5578D8"/><text fill="#FFFFFF" font-family="Basis Grotesque Arabic Pro,Basis Grotesque Arabic Pro_MSFontService,sans-serif" font-weight="700" font-size="37" direction="rtl" writing-mode="rl-tb" transform="matrix(1 0 0 1 1776.68 722)" x="347.188">المخطط العام الرئيسي</text><text fill="#FFFFFF" font-family="Basis Grotesque Arabic Pro,Basis Grotesque Arabic Pro_MSFontService,sans-serif" font-weight="700" font-size="37" transform="matrix(1 0 0 1 2123.89 722)"> </text><rect x="1708" y="942" width="485" height="85.0002" fill="#5578D8"/><text fill="#FFFFFF" font-family="Basis Grotesque Arabic Pro,Basis Grotesque Arabic Pro_MSFontService,sans-serif" font-weight="700" font-size="37" direction="rtl" writing-mode="rl-tb" transform="matrix(1 0 0 1 1725.98 970)" x="438.281">تصميم البنية التحتية وخطة </text><text fill="#FFFFFF" font-family="Basis Grotesque Arabic Pro,Basis Grotesque Arabic Pro_MSFontService,sans-serif" font-weight="700" font-size="37" direction="rtl" writing-mode="rl-tb" transform="matrix(1 0 0 1 1858.9 1014)" x="182.76">جودة الحياة</text><text fill="#FFFFFF" font-family="Basis Grotesque Arabic Pro,Basis Grotesque Arabic Pro_MSFontService,sans-serif" font-weight="700" font-size="37" transform="matrix(1 0 0 1 2041.68 1014)"> </text><rect x="1708" y="1487" width="485" height="84.9999" fill="#5578D8"/><text fill="#FFFFFF" font-family="Basis Grotesque Arabic Pro,Basis Grotesque Arabic Pro_MSFontService,sans-serif" font-weight="700" font-size="37" direction="rtl" writing-mode="rl-tb" transform="matrix(1 0 0 1 1857.75 1538)" x="185.052">خطة التنفيذ</text><text fill="#FFFFFF" font-family="Basis Grotesque Arabic Pro,Basis Grotesque Arabic Pro_MSFontService,sans-serif" font-weight="700" font-size="37" transform="matrix(1 0 0 1 2042.83 1538)"> </text><rect x="1708" y="1212" width="485" height="84.9999" fill="#5578D8"/><text fill="#FFFFFF" font-family="Basis Grotesque Arabic Pro,Basis Grotesque Arabic Pro_MSFontService,sans-serif" font-weight="700" font-size="37" direction="rtl" writing-mode="rl-tb" transform="matrix(1 0 0 1 1814.78 1263)" x="270.99">إرشادات التصميم</text><text fill="#FFFFFF" font-family="Basis Grotesque Arabic Pro,Basis Grotesque Arabic Pro_MSFontService,sans-serif" font-weight="700" font-size="37" transform="matrix(1 0 0 1 2085.79 1263)"> </text><rect x="2701" y="671" width="485" height="85.9999" fill="#5578D8"/><text fill="#FFFFFF" font-family="Basis Grotesque Arabic Pro,Basis Grotesque Arabic Pro_MSFontService,sans-serif" font-weight="700" font-size="37" direction="rtl" writing-mode="rl-tb" transform="matrix(1 0 0 1 2745.31 722)" x="397.031">التسويق ومبيعات الأصول</text><text fill="#FFFFFF" font-family="Basis Grotesque Arabic Pro,Basis Grotesque Arabic Pro_MSFontService,sans-serif" font-weight="700" font-size="37" transform="matrix(1 0 0 1 3142.36 722)"> </text><rect x="2707" y="1076" width="485" height="84.9999" fill="#5578D8"/><text fill="#FFFFFF" font-family="Basis Grotesque Arabic Pro,Basis Grotesque Arabic Pro_MSFontService,sans-serif" font-weight="700" font-size="37" direction="rtl" writing-mode="rl-tb" transform="matrix(1 0 0 1 2863.78 1126)" x="309.948">تشييد البنية التحتية </text><text fill="#FFFFFF" font-family="Basis Grotesque Arabic Pro,Basis Grotesque Arabic Pro_MSFontService,sans-serif" font-weight="700" font-size="37" direction="rtl" writing-mode="rl-tb" transform="matrix(1 0 0 1 2833.99 1126)" x="29.7917">/ </text><text fill="#FFFFFF" font-family="Basis Grotesque Arabic Pro,Basis Grotesque Arabic Pro_MSFontService,sans-serif" font-weight="700" font-size="37" direction="rtl" writing-mode="rl-tb" transform="matrix(1 0 0 1 2775.55 1126)" x="58.4375">المب</text><text fill="#FFFFFF" font-family="Basis Grotesque Arabic Pro,Basis Grotesque Arabic Pro_MSFontService,sans-serif" font-weight="700" font-size="37" direction="rtl" writing-mode="rl-tb" transform="matrix(1 0 0 1 2724.56 1126)" x="50.9896">اني</text><text fill="#FFFFFF" font-family="Basis Grotesque Arabic Pro,Basis Grotesque Arabic Pro_MSFontService,sans-serif" font-weight="700" font-size="37" transform="matrix(1 0 0 1 3173.75 1126)"> </text><rect x="2704" y="1480" width="485" height="85.0002" fill="#5578D8"/><text fill="#FFFFFF" font-family="Basis Grotesque Arabic Pro,Basis Grotesque Arabic Pro_MSFontService,sans-serif" font-weight="700" font-size="37" direction="rtl" writing-mode="rl-tb" transform="matrix(1 0 0 1 2832.83 1531)" x="227.448">إدارة الإنشاءات</text><text fill="#FFFFFF" font-family="Basis Grotesque Arabic Pro,Basis Grotesque Arabic Pro_MSFontService,sans-serif" font-weight="700" font-size="37" transform="matrix(1 0 0 1 3060.3 1531)"> </text><rect x="2205" y="1076" width="485" height="84.9999" fill="#5578D8"/><text fill="#FFFFFF" font-family="Basis Grotesque Arabic Pro,Basis Grotesque Arabic Pro_MSFontService,sans-serif" font-weight="700" font-size="37" direction="rtl" writing-mode="rl-tb" transform="matrix(1 0 0 1 2251.05 1126)" x="393.021">موافقة تصميم المطورين</text><text fill="#FFFFFF" font-family="Basis Grotesque Arabic Pro,Basis Grotesque Arabic Pro_MSFontService,sans-serif" font-weight="700" font-size="37" transform="matrix(1 0 0 1 2644.09 1126)"> </text><rect x="2205" y="1480" width="485" height="85.0002" fill="#5578D8"/><text fill="#FFFFFF" font-family="Basis Grotesque Arabic Pro,Basis Grotesque Arabic Pro_MSFontService,sans-serif" font-weight="700" font-size="37" direction="rtl" writing-mode="rl-tb" transform="matrix(1 0 0 1 2250.76 1531)" x="393.594">ترخيص مبيعات المطورين</text><text fill="#FFFFFF" font-family="Basis Grotesque Arabic Pro,Basis Grotesque Arabic Pro_MSFontService,sans-serif" font-weight="700" font-size="37" transform="matrix(1 0 0 1 2644.38 1531)"> </text><rect x="3213" y="671" width="485" height="85.9999" fill="#5578D8"/><text fill="#FFFFFF" font-family="Basis Grotesque Arabic Pro,Basis Grotesque Arabic Pro_MSFontService,sans-serif" font-weight="700" font-size="37" direction="rtl" writing-mode="rl-tb" transform="matrix(1 0 0 1 3682.89 722)" x="10.3125"> </text><text fill="#FFFFFF" font-family="Basis Grotesque Arabic Pro,Basis Grotesque Arabic Pro_MSFontService,sans-serif" font-weight="700" font-size="37" direction="rtl" writing-mode="rl-tb" transform="matrix(1 0 0 1 3277.26 722)" x="405.625">البنية التحتية وتسليم المج</text><text fill="#FFFFFF" font-family="Basis Grotesque Arabic Pro,Basis Grotesque Arabic Pro_MSFontService,sans-serif" font-weight="700" font-size="37" direction="rtl" writing-mode="rl-tb" transform="matrix(1 0 0 1 3217.11 722)" x="60.1563">تمع</text><text fill="#FFFFFF" font-family="Basis Grotesque Arabic Pro,Basis Grotesque Arabic Pro_MSFontService,sans-serif" font-weight="700" font-size="37" transform="matrix(1 0 0 1 3693.22 722)"> </text><rect x="2707" y="1885" width="485" height="84.9999" fill="#5578D8"/><text fill="#FFFFFF" font-family="Basis Grotesque Arabic Pro,Basis Grotesque Arabic Pro_MSFontService,sans-serif" font-weight="700" font-size="37" direction="rtl" writing-mode="rl-tb" transform="matrix(1 0 0 1 2751.49 1935)" x="427.969">البنية التحتية وتقديم الخدما</text><text fill="#FFFFFF" font-family="Basis Grotesque Arabic Pro,Basis Grotesque Arabic Pro_MSFontService,sans-serif" font-weight="700" font-size="37" direction="rtl" writing-mode="rl-tb" transform="matrix(1 0 0 1 2718.83 1935)" x="32.6562">ت</text><text fill="#FFFFFF" font-family="Basis Grotesque Arabic Pro,Basis Grotesque Arabic Pro_MSFontService,sans-serif" font-weight="700" font-size="37" transform="matrix(1 0 0 1 3179.48 1935)"> </text><rect x="3716" y="1753" width="485" height="84.9999" fill="#FFE2C1"/><text font-family="Basis Grotesque Arabic Pro,Basis Grotesque Arabic Pro_MSFontService,sans-serif" font-weight="700" font-size="37" direction="rtl" writing-mode="rl-tb" transform="matrix(1 0 0 1 3760.57 1781)" x="385.573">عمليات خدمات المجتمع </text><text font-family="Basis Grotesque Arabic Pro,Basis Grotesque Arabic Pro_MSFontService,sans-serif" font-weight="700" font-size="37" direction="rtl" writing-mode="rl-tb" transform="matrix(1 0 0 1 3857.12 1825)" x="202.813">وجودة الحياة</text><text font-family="Basis Grotesque Arabic Pro,Basis Grotesque Arabic Pro_MSFontService,sans-serif" font-weight="700" font-size="37" transform="matrix(1 0 0 1 4059.95 1825)"> </text><rect x="1708" y="1755" width="485" height="85.0002" fill="#DCEEF8"/><text font-family="Basis Grotesque Arabic Pro,Basis Grotesque Arabic Pro_MSFontService,sans-serif" font-weight="700" font-size="37" direction="rtl" writing-mode="rl-tb" transform="matrix(1 0 0 1 1769.81 1806)" x="360.938">إطلاق الخطة التسويقية</text><text font-family="Basis Grotesque Arabic Pro,Basis Grotesque Arabic Pro_MSFontService,sans-serif" font-weight="700" font-size="37" transform="matrix(1 0 0 1 2130.77 1806)"> </text><rect x="700" y="1480" width="485" height="85.0002" fill="#DCEEF8"/><text font-family="Basis Grotesque Arabic Pro,Basis Grotesque Arabic Pro_MSFontService,sans-serif" font-weight="700" font-size="37" direction="rtl" writing-mode="rl-tb" transform="matrix(1 0 0 1 712.431 1509)" x="449.74">استراتيجية التسويق والعلامة </text><text font-family="Basis Grotesque Arabic Pro,Basis Grotesque Arabic Pro_MSFontService,sans-serif" font-weight="700" font-size="37" direction="rtl" writing-mode="rl-tb" transform="matrix(1 0 0 1 884.031 1553)" x="116.875">التجارية</text><text font-family="Basis Grotesque Arabic Pro,Basis Grotesque Arabic Pro_MSFontService,sans-serif" font-weight="700" font-size="37" transform="matrix(1 0 0 1 1000.93 1553)"> </text><rect x="3213" y="1212" width="485" height="84.9999" fill="#5578D8"/><text fill="#FFFFFF" font-family="Basis Grotesque Arabic Pro,Basis Grotesque Arabic Pro_MSFontService,sans-serif" font-weight="700" font-size="37" direction="rtl" writing-mode="rl-tb" transform="matrix(1 0 0 1 3319.66 1263)" x="270.99">الفصل والتخليص</text><text fill="#FFFFFF" font-family="Basis Grotesque Arabic Pro,Basis Grotesque Arabic Pro_MSFontService,sans-serif" font-weight="700" font-size="37" transform="matrix(1 0 0 1 3590.67 1263)"> </text><rect x="3716" y="671" width="485" height="85.9999" fill="#FFE2C1"/><text font-family="Basis Grotesque Arabic Pro,Basis Grotesque Arabic Pro_MSFontService,sans-serif" font-weight="700" font-size="37" direction="rtl" writing-mode="rl-tb" transform="matrix(1 0 0 1 3849.94 722)" x="217.135">جمعية الملاك</text><text font-family="Basis Grotesque Arabic Pro,Basis Grotesque Arabic Pro_MSFontService,sans-serif" font-weight="700" font-size="37" transform="matrix(1 0 0 1 4067.1 722)"> </text></g></svg>